<svg xmlns="http://www.w3.org/2000/svg" viewBox="0 0 32 32"><defs><style>.cls-1{fill:#231f20;}</style></defs><g id="offer"><path class="cls-1" d="M28.12,18l1.77-3.55A1,1,0,0,0,29,13H28l.89-5A1.93,1.93,0,0,0,27.55,5.8L16.61,2.15a2,2,0,0,0-1.22,0L4.45,5.79A2,2,0,0,0,3.16,8l.41,2.2a1,1,0,0,0,2-.36L5.09,7.69,16,4.05l10.9,3.57-1,5.38H3a1,1,0,0,0-.89,1.45L3.88,18,2.11,21.55A1,1,0,0,0,3,23H5.67l.26,1.65a2,2,0,0,0,1.13,1.47l8.15,3.62a1.92,1.92,0,0,0,1.58,0l8.14-3.62a2,2,0,0,0,1.14-1.47L26.33,23H29a1,1,0,0,0,.89-1.45Zm-2,.45L27.38,21H26a1.09,1.09,0,0,0-.26.05l-.11,0a1,1,0,0,0-1.14.83l-.37,2.46L16,27.92,7.91,24.34,7.7,23H22a1,1,0,0,0,0-2H4.62l1.27-2.55a1,1,0,0,0,0-.9L4.62,15H27.38l-1.27,2.55A1,1,0,0,0,26.11,18.45Z"/><path class="cls-1" d="M11.11,16.89a1.24,1.24,0,0,0-.54-.44,2.24,2.24,0,0,0-1.61,0,1.24,1.24,0,0,0-.54.44,1.38,1.38,0,0,0-.22.69v.82a1.38,1.38,0,0,0,.22.7,1.14,1.14,0,0,0,.54.42,2,2,0,0,0,.8.15,2,2,0,0,0,.8-.15,1.14,1.14,0,0,0,.54-.42,1.21,1.21,0,0,0,.22-.7c0-.12,0-.26,0-.4s0-.28,0-.42A1.28,1.28,0,0,0,11.11,16.89Zm-1,1.49a.38.38,0,0,1-.1.28.33.33,0,0,1-.25.09.32.32,0,0,1-.24-.09.38.38,0,0,1-.1-.28c0-.14,0-.27,0-.4s0-.26,0-.39a.43.43,0,0,1,.05-.21.3.3,0,0,1,.12-.13.47.47,0,0,1,.17,0,.48.48,0,0,1,.18,0,.3.3,0,0,1,.12.13.43.43,0,0,1,0,.21c0,.13,0,.26,0,.39S10.11,18.24,10.11,18.38Z"/><path class="cls-1" d="M14.23,16.35H11.88a.14.14,0,0,0-.13.13v3a.14.14,0,0,0,.13.13h.89a.12.12,0,0,0,.12-.13v-.88h1.25a.11.11,0,0,0,.08,0,.12.12,0,0,0,0-.09v-.71a.12.12,0,0,0,0-.09.11.11,0,0,0-.08,0H12.89v-.35h1.34a.12.12,0,0,0,.09,0,.12.12,0,0,0,0-.08v-.71a.13.13,0,0,0,0-.09A.12.12,0,0,0,14.23,16.35Z"/><path class="cls-1" d="M17.25,16.35H14.89a.12.12,0,0,0-.12.13v3a.12.12,0,0,0,.12.13h.89a.14.14,0,0,0,.13-.13v-.88h1.24a.12.12,0,0,0,.13-.12v-.71a.12.12,0,0,0-.13-.12H15.91v-.35h1.34a.14.14,0,0,0,.12-.12v-.71a.1.1,0,0,0,0-.09A.09.09,0,0,0,17.25,16.35Z"/><path class="cls-1" d="M20.34,18.71H18.9v-.3h1.3a.16.16,0,0,0,.09,0,.18.18,0,0,0,0-.09v-.61a.18.18,0,0,0,0-.09.16.16,0,0,0-.09,0H18.9v-.3h1.4a.14.14,0,0,0,.13-.13v-.65a.14.14,0,0,0-.13-.13H17.91a.14.14,0,0,0-.13.13v3a.14.14,0,0,0,.13.13h2.43a.12.12,0,0,0,.09,0,.13.13,0,0,0,0-.09v-.66a.12.12,0,0,0,0-.08A.12.12,0,0,0,20.34,18.71Z"/><path class="cls-1" d="M23.33,18.4a1.27,1.27,0,0,0,.36-.37,1.07,1.07,0,0,0,.14-.55,1,1,0,0,0-.38-.83,1.64,1.64,0,0,0-1.05-.3H21a.12.12,0,0,0-.12.13v3a.12.12,0,0,0,.12.13h.92a.12.12,0,0,0,.12-.13V18.6h.19l.41.89s0,.05.06.08a.18.18,0,0,0,.14.05h.95a.08.08,0,0,0,.07,0,.09.09,0,0,0,0-.07.14.14,0,0,0,0-.06Zm-.77-.76a.18.18,0,0,1-.16.07h-.34v-.49h.34a.19.19,0,0,1,.17.08.35.35,0,0,1,.05.18A.25.25,0,0,1,22.56,17.64Z"/><path class="cls-1" d="M18.6,10.5A3,3,0,1,0,16,12,3,3,0,0,0,18.6,10.5ZM15,9a1,1,0,0,1,2,0,1.06,1.06,0,0,1-.13.5A1,1,0,0,1,15,9Z"/></g></svg>